<svg width="800" height="400" viewBox="0 0 800 400" xmlns="http://www.w3.org/2000/svg"><mask id="satori_om-id"><rect x="0" y="0" width="800" height="400" fill="#fff"/></mask><rect x="0" y="0" width="800" height="400" fill="#fff"/><clipPath id="satori_cp-id-0"><rect x="363" y="94" width="75" height="65"/></clipPath><mask id="satori_om-id-0"><rect x="363" y="94" width="75" height="65" fill="#fff"/></mask><image x="363" y="94" width="75" height="65" href="data:image/svg+xml;utf8,%3Csvg  fill=%22%23000%22 xmlns=%22http://www.w3.org/2000/svg%22 width=%22NaN%22 height=%22null%22 viewBox=%220 0 75 65%22%3E%3Cpath d=%22M37.59.25l36.95 64H.64l36.95-64z%22%3E%3C/path%3E%3C/svg%3E" preserveAspectRatio="none" clip-path="url(#satori_cp-id-0)" mask="url(#satori_om-id-0)"/><mask id="satori_om-id-0-0"><rect x="363" y="94" width="0" height="65" fill="#fff"/></mask><mask id="satori_om-id-1"><rect x="294" y="199" width="213" height="39" fill="#fff"/></mask><path fill="black" d="M313.6 230L295.8 230L295.8 227.1L307.4 210.8L295.8 210.8L295.8 206.7L313.6 206.7L313.6 209.6L301.9 225.9L313.6 225.9L313.6 230ZM325.2 230.3L325.2 230.3Q322.5 230.3 320.6 229.2Q318.7 228.1 317.6 226.1Q316.6 224.0 316.6 221.3L316.6 221.3Q316.6 218.6 317.6 216.6Q318.7 214.6 320.6 213.4Q322.5 212.3 325.2 212.3L325.2 212.3Q327.8 212.3 329.7 213.4Q331.7 214.6 332.7 216.6Q333.8 218.6 333.8 221.3L333.8 221.3Q333.8 224.0 332.7 226.1Q331.7 228.1 329.7 229.2Q327.8 230.3 325.2 230.3ZM325.2 226.6L325.2 226.6Q326.4 226.6 327.2 225.9Q328 225.2 328.4 224.0Q328.8 222.8 328.8 221.3L328.8 221.3Q328.8 219.8 328.4 218.6Q328 217.4 327.2 216.7Q326.4 216.0 325.2 216.0L325.2 216.0Q324.0 216.0 323.1 216.7Q322.3 217.4 321.9 218.6Q321.5 219.8 321.5 221.3L321.5 221.3Q321.5 222.8 321.9 224.0Q322.3 225.2 323.1 225.9Q324.0 226.6 325.2 226.6ZM344.8 230.3L344.8 230.3Q342.1 230.3 340.2 229.2Q338.3 228.1 337.2 226.1Q336.2 224.0 336.2 221.3L336.2 221.3Q336.2 218.6 337.2 216.6Q338.3 214.6 340.2 213.4Q342.1 212.3 344.8 212.3L344.8 212.3Q347.4 212.3 349.4 213.4Q351.3 214.6 352.3 216.6Q353.4 218.6 353.4 221.3L353.4 221.3Q353.4 224.0 352.3 226.1Q351.3 228.1 349.4 229.2Q347.4 230.3 344.8 230.3ZM344.8 226.6L344.8 226.6Q346.0 226.6 346.8 225.9Q347.6 225.2 348.1 224.0Q348.5 222.8 348.5 221.3L348.5 221.3Q348.5 219.8 348.1 218.6Q347.6 217.4 346.8 216.7Q346.0 216.0 344.8 216.0L344.8 216.0Q343.6 216.0 342.8 216.7Q342.0 217.4 341.5 218.6Q341.1 219.8 341.1 221.3L341.1 221.3Q341.1 222.8 341.5 224.0Q342.0 225.2 342.8 225.9Q343.6 226.6 344.8 226.6ZM361.4 230L356.5 230L356.5 212.5L361.2 212.5L361.2 215.6L361.4 215.6Q361.9 214.1 363.2 213.2Q364.5 212.3 366.2 212.3L366.2 212.3Q368.0 212.3 369.3 213.2Q370.5 214.1 371.0 215.6L371.0 215.6L371.1 215.6Q371.7 214.1 373.1 213.2Q374.5 212.3 376.4 212.3L376.4 212.3Q378.9 212.3 380.4 213.9Q381.9 215.4 381.9 218.3L381.9 218.3L381.9 230L377.1 230L377.1 219.2Q377.1 217.8 376.3 217.0Q375.5 216.3 374.4 216.3L374.4 216.3Q373.1 216.3 372.3 217.1Q371.6 218.0 371.6 219.3L371.6 219.3L371.6 230L366.9 230L366.9 219.1Q366.9 217.8 366.2 217.1Q365.4 216.3 364.2 216.3L364.2 216.3Q363.4 216.3 362.8 216.7Q362.1 217.1 361.8 217.8Q361.4 218.6 361.4 219.5L361.4 219.5L361.4 230ZM400.2 217.5L400.2 217.5L395.8 217.8Q395.7 217.2 395.3 216.8Q395.0 216.3 394.3 216.0Q393.7 215.8 392.9 215.8L392.9 215.8Q391.8 215.8 391.0 216.2Q390.2 216.7 390.2 217.5L390.2 217.5Q390.2 218.1 390.7 218.5Q391.2 219.0 392.4 219.2L392.4 219.2L395.6 219.9Q398.1 220.4 399.4 221.5Q400.6 222.7 400.6 224.6L400.6 224.6Q400.6 226.3 399.6 227.6Q398.6 228.9 396.9 229.6Q395.1 230.3 392.9 230.3L392.9 230.3Q389.4 230.3 387.4 228.9Q385.3 227.4 385.0 224.9L385.0 224.9L389.7 224.7Q389.9 225.8 390.8 226.3Q391.6 226.9 392.9 226.9L392.9 226.9Q394.2 226.9 394.9 226.4Q395.7 225.9 395.7 225.1L395.7 225.1Q395.7 224.4 395.2 224.0Q394.6 223.6 393.5 223.3L393.5 223.3L390.5 222.7Q387.9 222.2 386.7 221.0Q385.4 219.7 385.4 217.8L385.4 217.8Q385.4 216.1 386.3 214.9Q387.2 213.6 388.9 213.0Q390.6 212.3 392.8 212.3L392.8 212.3Q396.1 212.3 398.0 213.7Q399.9 215.1 400.2 217.5ZM402.5 212.5L413.0 212.5L413.0 216.2L402.5 216.2L402.5 212.5ZM404.9 225.3L404.9 208.4L409.7 208.4L409.7 224.6Q409.7 225.3 409.9 225.7Q410.1 226.0 410.5 226.2Q410.9 226.3 411.3 226.3L411.3 226.3Q411.7 226.3 412.0 226.3Q412.4 226.2 412.5 226.2L412.5 226.2L413.3 229.8Q412.9 229.9 412.3 230.1Q411.6 230.2 410.7 230.2L410.7 230.2Q408.9 230.3 407.6 229.8Q406.3 229.2 405.6 228.1Q404.9 227.0 404.9 225.3L404.9 225.3ZM423.9 230.3L423.9 230.3Q421.2 230.3 419.3 229.2Q417.3 228.1 416.3 226.1Q415.3 224.1 415.3 221.4L415.3 221.4Q415.3 218.7 416.3 216.6Q417.3 214.6 419.2 213.5Q421.1 212.3 423.7 212.3L423.7 212.3Q425.4 212.3 426.9 212.9Q428.4 213.4 429.6 214.5Q430.7 215.6 431.3 217.3Q431.9 219.0 431.9 221.2L431.9 221.2L431.9 222.5L417.2 222.5L417.2 219.5L427.4 219.5Q427.4 218.5 426.9 217.7Q426.5 216.9 425.7 216.4Q424.9 215.9 423.8 215.9L423.8 215.9Q422.7 215.9 421.8 216.4Q421 216.9 420.5 217.8Q420.0 218.6 420.0 219.7L420.0 219.7L420.0 222.5Q420.0 223.8 420.5 224.8Q421 225.7 421.9 226.2Q422.8 226.7 424.0 226.7L424.0 226.7Q424.8 226.7 425.5 226.5Q426.1 226.3 426.6 225.8Q427.1 225.4 427.3 224.7L427.3 224.7L431.8 225Q431.5 226.6 430.4 227.8Q429.4 229.0 427.7 229.7Q426.1 230.3 423.9 230.3ZM439.9 230L435.1 230L435.1 212.5L439.8 212.5L439.8 215.6L440.0 215.6Q440.4 214.0 441.6 213.1Q442.7 212.3 444.1 212.3L444.1 212.3Q444.5 212.3 444.9 212.3Q445.4 212.4 445.7 212.5L445.7 212.5L445.7 216.8Q445.3 216.7 444.7 216.6Q444.1 216.5 443.6 216.5L443.6 216.5Q442.6 216.5 441.7 217.0Q440.9 217.4 440.4 218.2Q439.9 219.1 439.9 220.1L439.9 220.1L439.9 230ZM453.0 219.9L453.0 219.9L453.0 230L448.2 230L448.2 206.7L452.9 206.7L452.9 215.6L453.1 215.6Q453.7 214.1 455.0 213.2Q456.3 212.3 458.3 212.3L458.3 212.3Q460.1 212.3 461.5 213.1Q462.8 213.9 463.6 215.4Q464.3 216.8 464.3 218.9L464.3 218.9L464.3 230L459.5 230L459.5 219.8Q459.5 218.1 458.7 217.2Q457.8 216.3 456.4 216.3L456.4 216.3Q455.4 216.3 454.6 216.8Q453.9 217.2 453.4 218.0Q453.0 218.8 453.0 219.9ZM479.3 222.6L479.3 222.6L479.3 212.5L484.2 212.5L484.2 230L479.5 230L479.5 226.8L479.3 226.8Q478.8 228.4 477.4 229.3Q476.0 230.2 474.0 230.2L474.0 230.2Q472.3 230.2 471.0 229.4Q469.6 228.6 468.9 227.2Q468.1 225.7 468.1 223.7L468.1 223.7L468.1 212.5L473.0 212.5L473.0 222.8Q473.0 224.3 473.8 225.2Q474.6 226.1 476 226.1L476 226.1Q476.9 226.1 477.6 225.7Q478.4 225.3 478.9 224.5Q479.3 223.7 479.3 222.6ZM492.9 230L488.1 230L488.1 206.7L493.0 206.7L493.0 215.5L493.1 215.5Q493.4 214.8 494.0 214.0Q494.6 213.3 495.6 212.8Q496.6 212.3 498.1 212.3L498.1 212.3Q500.0 212.3 501.6 213.3Q503.2 214.3 504.2 216.3Q505.1 218.3 505.1 221.3L505.1 221.3Q505.1 224.2 504.2 226.2Q503.3 228.2 501.7 229.3Q500.1 230.3 498.1 230.3L498.1 230.3Q496.7 230.3 495.7 229.8Q494.7 229.4 494.1 228.6Q493.4 227.9 493.1 227.2L493.1 227.2L492.9 227.2L492.9 230ZM492.9 221.3L492.9 221.3Q492.9 222.8 493.3 224.0Q493.7 225.1 494.5 225.8Q495.4 226.4 496.5 226.4L496.5 226.4Q497.7 226.4 498.5 225.8Q499.4 225.1 499.8 224.0Q500.2 222.8 500.2 221.3L500.2 221.3Q500.2 219.8 499.8 218.6Q499.4 217.5 498.5 216.8Q497.7 216.2 496.5 216.2L496.5 216.2Q495.4 216.2 494.5 216.8Q493.7 217.4 493.3 218.6Q492.9 219.7 492.9 221.3Z "/><mask id="satori_om-id-2"><rect x="325" y="248" width="151" height="26" fill="#fff"/></mask><path fill="black" d="M329.6 268.3L326.3 268.3L326.3 253.1L332.4 253.1Q334.1 253.1 335.3 253.7Q336.5 254.4 337.2 255.6Q337.8 256.7 337.8 258.2L337.8 258.2Q337.8 259.8 337.2 260.9Q336.5 262.1 335.3 262.7Q334.0 263.4 332.3 263.4L332.3 263.4L328.4 263.4L328.4 260.8L331.7 260.8Q332.7 260.8 333.3 260.5Q333.9 260.2 334.2 259.6Q334.5 259.0 334.5 258.2L334.5 258.2Q334.5 257.5 334.2 256.9Q333.9 256.3 333.3 256.0Q332.7 255.7 331.7 255.7L331.7 255.7L329.6 255.7L329.6 268.3ZM343.0 268.3L339.9 268.3L339.9 256.9L342.9 256.9L342.9 258.9L343.1 258.9Q343.4 257.8 344.1 257.3Q344.9 256.7 345.8 256.7L345.8 256.7Q346.1 256.7 346.3 256.8Q346.6 256.8 346.8 256.8L346.8 256.8L346.8 259.7Q346.6 259.6 346.2 259.5Q345.8 259.5 345.5 259.5L345.5 259.5Q344.8 259.5 344.2 259.8Q343.7 260.1 343.4 260.6Q343.0 261.2 343.0 261.9L343.0 261.9L343.0 268.3ZM353.1 268.6L353.1 268.6Q351.4 268.6 350.1 267.8Q348.8 267.1 348.1 265.8Q347.5 264.4 347.5 262.7L347.5 262.7Q347.5 260.9 348.1 259.6Q348.8 258.2 350.1 257.5Q351.4 256.7 353.1 256.7L353.1 256.7Q354.8 256.7 356.1 257.5Q357.4 258.2 358.0 259.6Q358.7 260.9 358.7 262.7L358.7 262.7Q358.7 264.4 358.0 265.8Q357.4 267.1 356.1 267.8Q354.8 268.6 353.1 268.6ZM353.1 266.1L353.1 266.1Q353.9 266.1 354.4 265.7Q355.0 265.2 355.2 264.4Q355.5 263.6 355.5 262.6L355.5 262.6Q355.5 261.6 355.2 260.9Q355.0 260.1 354.4 259.6Q353.9 259.2 353.1 259.2L353.1 259.2Q352.3 259.2 351.8 259.6Q351.2 260.1 351.0 260.9Q350.7 261.6 350.7 262.6L350.7 262.6Q350.7 263.6 351.0 264.4Q351.2 265.2 351.8 265.7Q352.3 266.1 353.1 266.1ZM360.8 268.9L360.8 256.9L364.0 256.9L364.0 268.9Q364.0 270.2 363.5 271.1Q362.9 271.9 362.0 272.3Q361.0 272.6 359.6 272.6L359.6 272.6Q359.5 272.6 359.3 272.6Q359.2 272.6 359.0 272.6L359.0 272.6L359.0 270.1Q359.1 270.1 359.2 270.2Q359.3 270.2 359.4 270.2L359.4 270.2Q360.2 270.2 360.5 269.8Q360.8 269.5 360.8 268.9L360.8 268.9ZM362.4 255.4L362.4 255.4Q361.7 255.4 361.2 254.9Q360.7 254.5 360.7 253.8L360.7 253.8Q360.7 253.1 361.2 252.7Q361.7 252.2 362.4 252.2L362.4 252.2Q363.1 252.2 363.6 252.7Q364.1 253.1 364.1 253.8L364.1 253.8Q364.1 254.5 363.6 254.9Q363.1 255.4 362.4 255.4ZM371.7 268.6L371.7 268.6Q370.0 268.6 368.7 267.8Q367.4 267.1 366.7 265.8Q366.1 264.5 366.1 262.7L366.1 262.7Q366.1 260.9 366.7 259.6Q367.4 258.2 368.7 257.5Q369.9 256.7 371.6 256.7L371.6 256.7Q372.7 256.7 373.7 257.1Q374.7 257.5 375.4 258.2Q376.2 258.9 376.6 260.0Q377.0 261.1 377.0 262.6L377.0 262.6L377.0 263.4L367.3 263.4L367.3 261.5L374.0 261.5Q374.0 260.8 373.7 260.2Q373.4 259.7 372.9 259.4Q372.4 259.1 371.7 259.1L371.7 259.1Q370.9 259.1 370.4 259.4Q369.8 259.8 369.5 260.3Q369.2 260.9 369.2 261.6L369.2 261.6L369.2 263.4Q369.2 264.3 369.5 264.9Q369.8 265.5 370.4 265.9Q371.0 266.2 371.8 266.2L371.8 266.2Q372.3 266.2 372.8 266.0Q373.2 265.9 373.5 265.6Q373.8 265.3 374.0 264.9L374.0 264.9L376.9 265.1Q376.7 266.1 376.0 266.9Q375.3 267.7 374.2 268.1Q373.2 268.6 371.7 268.6ZM384.2 268.6L384.2 268.6Q382.5 268.6 381.2 267.8Q380.0 267.1 379.3 265.7Q378.6 264.4 378.6 262.7L378.6 262.7Q378.6 260.9 379.3 259.6Q380.0 258.2 381.2 257.5Q382.5 256.7 384.2 256.7L384.2 256.7Q385.7 256.7 386.9 257.3Q388.0 257.8 388.6 258.8Q389.3 259.8 389.4 261.1L389.4 261.1L386.4 261.1Q386.2 260.3 385.7 259.7Q385.2 259.2 384.3 259.2L384.3 259.2Q383.5 259.2 383.0 259.6Q382.4 260.0 382.1 260.8Q381.8 261.5 381.8 262.6L381.8 262.6Q381.8 263.7 382.1 264.5Q382.4 265.2 383.0 265.7Q383.5 266.1 384.3 266.1L384.3 266.1Q384.8 266.1 385.3 265.8Q385.7 265.6 386.0 265.2Q386.3 264.7 386.4 264.1L386.4 264.1L389.4 264.1Q389.3 265.5 388.6 266.5Q388.0 267.4 386.9 268.0Q385.8 268.6 384.2 268.6ZM390.6 256.9L397.5 256.9L397.5 259.3L390.6 259.3L390.6 256.9ZM392.2 265.2L392.2 254.1L395.3 254.1L395.3 264.8Q395.3 265.3 395.5 265.5Q395.6 265.7 395.8 265.8Q396.1 265.9 396.4 265.9L396.4 265.9Q396.6 265.9 396.9 265.9Q397.1 265.9 397.2 265.8L397.2 265.8L397.7 268.2Q397.5 268.3 397.0 268.4Q396.6 268.5 396.0 268.5L396.0 268.5Q394.8 268.5 394.0 268.2Q393.1 267.8 392.6 267.1Q392.2 266.4 392.2 265.2L392.2 265.2Z M414.6 253.1L417.8 253.1L417.8 268.3L415.0 268.3L408.4 258.7L408.3 258.7L408.3 268.3L405.0 268.3L405.0 253.1L407.9 253.1L414.5 262.7L414.6 262.7L414.6 253.1ZM425.6 268.6L425.6 268.6Q423.8 268.6 422.6 267.8Q421.3 267.1 420.6 265.8Q419.9 264.4 419.9 262.7L419.9 262.7Q419.9 260.9 420.6 259.6Q421.3 258.2 422.6 257.5Q423.8 256.7 425.6 256.7L425.6 256.7Q427.3 256.7 428.6 257.5Q429.8 258.2 430.5 259.6Q431.2 260.9 431.2 262.7L431.2 262.7Q431.2 264.4 430.5 265.8Q429.8 267.1 428.6 267.8Q427.3 268.6 425.6 268.6ZM425.6 266.1L425.6 266.1Q426.4 266.1 426.9 265.7Q427.4 265.2 427.7 264.4Q428.0 263.6 428.0 262.6L428.0 262.6Q428.0 261.6 427.7 260.9Q427.4 260.1 426.9 259.6Q426.4 259.2 425.6 259.2L425.6 259.2Q424.8 259.2 424.3 259.6Q423.7 260.1 423.4 260.9Q423.2 261.6 423.2 262.6L423.2 262.6Q423.2 263.6 423.4 264.4Q423.7 265.2 424.3 265.7Q424.8 266.1 425.6 266.1Z M438.3 260.8L445.3 260.8L445.3 263.3L438.3 263.3L438.3 260.8Z M456.5 253.1L459.5 253.1L459.5 268.3L456.3 268.3L456.3 256.1L456.2 256.1L452.7 258.3L452.7 255.5L456.5 253.1ZM474.0 268.3L463.1 268.3L463.1 266.0L468.6 261.0Q469.2 260.3 469.7 259.8Q470.2 259.2 470.4 258.7Q470.7 258.2 470.7 257.6L470.7 257.6Q470.7 256.9 470.4 256.4Q470.1 255.9 469.5 255.7Q469.0 255.4 468.3 255.4L468.3 255.4Q467.6 255.4 467.1 255.7Q466.6 256.0 466.3 256.5Q466.0 257.0 466.0 257.8L466.0 257.8L463.0 257.8Q463.0 256.3 463.6 255.2Q464.3 254.1 465.5 253.5Q466.8 252.9 468.4 252.9L468.4 252.9Q470.0 252.9 471.2 253.4Q472.4 254.0 473.1 255.0Q473.8 256.1 473.8 257.4L473.8 257.4Q473.8 258.2 473.5 259.1Q473.1 259.9 472.3 261.0Q471.4 262.0 469.8 263.4L469.8 263.4L467.6 265.6L467.6 265.7L474.0 265.7L474.0 268.3Z "/></svg>